<svg xmlns="http://www.w3.org/2000/svg" width="352" height="472" viewBox="0 0 352 472" role="img" aria-label="briar-warden">
  <rect width="352" height="472" fill="none"/>
  <ellipse cx="176" cy="421" rx="112" ry="26" fill="#060504" opacity=".52"/>
  <g shape-rendering="crispEdges">
    
      <path d="M90 384 C100 296 104 232 92 160 C120 186 142 205 176 207 C210 205 232 186 260 160 C248 232 252 296 262 384 C236 408 207 420 176 420 C145 420 116 408 90 384 Z" fill="#2a1b16" stroke="#17120d" stroke-width="14"/>
      <path d="M122 370 C127 292 128 238 118 190 C139 206 157 216 176 216 C195 216 213 206 234 190 C224 238 225 292 230 370 C214 386 196 394 176 394 C156 394 138 386 122 370 Z" fill="#3d6f3a" stroke="#17120d" stroke-width="8"/>
      <path d="M91 159 L61 112 L106 128 L116 74 L145 124 L176 54 L207 124 L236 74 L246 128 L291 112 L261 159" fill="#3d6f3a" stroke="#17120d" stroke-width="12" stroke-linejoin="round"/>
      <path d="M112 144 L86 121 L123 133 L129 96 L151 132 L176 78 L201 132 L223 96 L229 133 L266 121 L240 144" fill="#79b65d" stroke="#17120d" stroke-width="5" stroke-linejoin="round"/>
      <path d="M136 236 L111 215 L128 265 L105 303" fill="none" stroke="#d3a85b" stroke-width="9" stroke-linecap="round" stroke-linejoin="round"/>
      <path d="M216 236 L241 215 L224 265 L247 303" fill="none" stroke="#d3a85b" stroke-width="9" stroke-linecap="round" stroke-linejoin="round"/>
      <path d="M146 170 L167 155 L188 170 L184 202 L168 216 L152 202 Z" fill="#17120d" stroke="#f1dfad" stroke-width="6"/>
      <path d="M154 176 L166 169 L178 176 L176 192 L166 201 L156 192 Z" fill="#a8e07a"/>
      <path d="M139 312 C157 298 195 298 213 312 L205 344 C188 334 164 334 147 344 Z" fill="#17120d" stroke="#d3a85b" stroke-width="5"/>
      <path d="M75 256 C43 238 40 205 63 180 M277 256 C309 238 312 205 289 180" fill="none" stroke="#3d6f3a" stroke-width="15" stroke-linecap="round"/>
      <path d="M75 256 C43 238 40 205 63 180 M277 256 C309 238 312 205 289 180" fill="none" stroke="#79b65d" stroke-width="7" stroke-linecap="round"/>
    
    <path d="M109 392 C132 425 220 425 243 392" fill="none" stroke="#f1dfad" stroke-width="5" opacity=".45"/>
    <path d="M86 405 H266" stroke="#050403" stroke-width="8" opacity=".58"/>
  </g>
</svg>
