<svg xmlns="http://www.w3.org/2000/svg" width="352" height="472" viewBox="0 0 352 472" role="img" aria-label="crown-sentinel">
  <rect width="352" height="472" fill="none"/>
  <ellipse cx="176" cy="421" rx="112" ry="26" fill="#060504" opacity=".52"/>
  <g shape-rendering="crispEdges">
    
      <path d="M101 395 L86 163 L130 187 L145 112 L176 178 L207 112 L222 187 L266 163 L251 395 C232 414 207 424 176 424 C145 424 120 414 101 395 Z" fill="#3b2430" stroke="#16100e" stroke-width="14" stroke-linejoin="round"/>
      <path d="M128 374 L119 201 L147 217 L157 157 L176 214 L195 157 L205 217 L233 201 L224 374 C210 388 194 396 176 396 C158 396 142 388 128 374 Z" fill="#81513a" stroke="#16100e" stroke-width="8"/>
      <path d="M105 164 L75 118 L122 131 L135 78 L160 129 L176 50 L192 129 L217 78 L230 131 L277 118 L247 164 Z" fill="#f0c35c" stroke="#16100e" stroke-width="12" stroke-linejoin="round"/>
      <path d="M130 168 L104 135 L138 143 L148 107 L166 143 L176 82 L186 143 L204 107 L214 143 L248 135 L222 168" fill="#f6e7a5" stroke="#16100e" stroke-width="5" stroke-linejoin="round"/>
      <path d="M126 240 L226 240 L215 326 L137 326 Z" fill="#16100e" stroke="#f0c35c" stroke-width="7" stroke-linejoin="round"/>
      <path d="M150 222 L165 207 L187 207 L202 222 L196 255 L156 255 Z" fill="#ff5a3d" stroke="#16100e" stroke-width="6"/>
      <path d="M162 272 H190 M154 294 H198" stroke="#f6e7a5" stroke-width="8" stroke-linecap="square"/>
      <path d="M89 246 L43 216 L68 198 L111 224 M263 246 L309 216 L284 198 L241 224" fill="#81513a" stroke="#16100e" stroke-width="9" stroke-linejoin="round"/>
      <path d="M47 216 L31 187 M305 216 L321 187" stroke="#f0c35c" stroke-width="8" stroke-linecap="round"/>
    
    <path d="M109 392 C132 425 220 425 243 392" fill="none" stroke="#f1dfad" stroke-width="5" opacity=".45"/>
    <path d="M86 405 H266" stroke="#050403" stroke-width="8" opacity=".58"/>
  </g>
</svg>
