<svg xmlns="http://www.w3.org/2000/svg" viewBox="0 0 64 64" role="img" aria-label="Ash Tithe">
  <rect width="64" height="64" fill="none"/>
  <circle cx="32" cy="32" r="29" fill="#1a0c08" opacity=".86"/>
  <path d="M13 32c0-11 8-20 19-20s19 9 19 20-8 20-19 20-19-9-19-20z" fill="#8b2f1f" opacity=".42"/>
  <rect x="-13" y="-6" width="0" height="0" fill="#d43d2f" opacity=".58"/><rect x="-10" y="4" width="0" height="0" fill="#8b2f1f" opacity=".58"/><rect x="-31" y="-5" width="0" height="0" fill="#d43d2f" opacity=".58"/><rect x="-7" y="4" width="0" height="0" fill="#8b2f1f" opacity=".58"/><rect x="-15" y="-5" width="0" height="0" fill="#d43d2f" opacity=".58"/><rect x="-16" y="4" width="0" height="0" fill="#8b2f1f" opacity=".58"/>
  <g transform="rotate(0 32 32)">
    <circle cx="32" cy="32" r="18" fill="#d43d2f" stroke="#1a0c08" stroke-width="3" stroke-linejoin="round" stroke-linecap="round"/><circle cx="32" cy="32" r="10" fill="#ffd27a" stroke="#1a0c08" stroke-width="3" stroke-linejoin="round" stroke-linecap="round"/><path d="M27 32h10M32 25v15" stroke="#1a0c08" stroke-width="3"/>
  </g>
  <rect x="25" y="54" width="8" height="3" fill="#d43d2f" opacity=".88"/>
</svg>
