<svg xmlns="http://www.w3.org/2000/svg" viewBox="0 0 64 64" role="img" aria-label="Banner Flame">
  <rect width="64" height="64" fill="none"/>
  <circle cx="32" cy="32" r="29" fill="#1a0c08" opacity=".86"/>
  <path d="M13 32c0-11 8-20 19-20s19 9 19 20-8 20-19 20-19-9-19-20z" fill="#8b2f1f" opacity=".42"/>
  <rect x="-32" y="1" width="1" height="1" fill="#d43d2f" opacity=".58"/><rect x="-12" y="-28" width="1" height="1" fill="#8b2f1f" opacity=".58"/><rect x="7" y="-24" width="1" height="1" fill="#d43d2f" opacity=".58"/><rect x="-2" y="0" width="0" height="0" fill="#8b2f1f" opacity=".58"/><rect x="-19" y="-17" width="0" height="0" fill="#d43d2f" opacity=".58"/><rect x="-22" y="1" width="0" height="0" fill="#8b2f1f" opacity=".58"/>
  <g transform="rotate(-3 32 32)">
    <path d="M32 55c-12-6-15-17-9-27 3-5 8-9 7-18 12 9 20 19 13 32-2 4-5 8-11 13z" fill="#e0863e" stroke="#1a0c08" stroke-width="3" stroke-linejoin="round" stroke-linecap="round"/><path d="M33 48c-7-4-8-11-3-18 4 5 8 10 3 18z" fill="#ffd27a"/>
  </g>
  <rect x="22" y="54" width="8" height="3" fill="#d43d2f" opacity=".88"/>
</svg>
