<svg xmlns="http://www.w3.org/2000/svg" viewBox="0 0 64 64" role="img" aria-label="Black Market">
  <rect width="64" height="64" fill="none"/>
  <circle cx="32" cy="32" r="29" fill="#0b1020" opacity=".86"/>
  <path d="M13 32c0-11 8-20 19-20s19 9 19 20-8 20-19 20-19-9-19-20z" fill="#2d3358" opacity=".42"/>
  <rect x="28" y="29" width="1" height="1" fill="#caa35e" opacity=".58"/><rect x="23" y="24" width="1" height="1" fill="#2d3358" opacity=".58"/><rect x="17" y="45" width="1" height="1" fill="#caa35e" opacity=".58"/><rect x="10" y="51" width="1" height="1" fill="#2d3358" opacity=".58"/><rect x="10" y="30" width="1" height="1" fill="#caa35e" opacity=".58"/><rect x="26" y="13" width="2" height="2" fill="#2d3358" opacity=".58"/>
  <g transform="rotate(-1 32 32)">
    <circle cx="32" cy="32" r="18" fill="#caa35e" stroke="#0b1020" stroke-width="3" stroke-linejoin="round" stroke-linecap="round"/><circle cx="32" cy="32" r="10" fill="#e3d9ff" stroke="#0b1020" stroke-width="3" stroke-linejoin="round" stroke-linecap="round"/><path d="M27 32h10M32 25v15" stroke="#0b1020" stroke-width="3"/>
  </g>
  <rect x="14" y="54" width="8" height="3" fill="#caa35e" opacity=".88"/>
</svg>
