<svg xmlns="http://www.w3.org/2000/svg" viewBox="0 0 64 64" role="img" aria-label="Bone Plate">
  <rect width="64" height="64" fill="none"/>
  <circle cx="32" cy="32" r="29" fill="#121012" opacity=".86"/>
  <path d="M13 32c0-11 8-20 19-20s19 9 19 20-8 20-19 20-19-9-19-20z" fill="#4d3b50" opacity=".42"/>
  <rect x="-1" y="0" width="0" height="0" fill="#9f7a3f" opacity=".58"/><rect x="-25" y="-17" width="0" height="0" fill="#4d3b50" opacity=".58"/><rect x="-11" y="-21" width="1" height="1" fill="#9f7a3f" opacity=".58"/><rect x="-15" y="0" width="1" height="1" fill="#4d3b50" opacity=".58"/><rect x="-10" y="6" width="1" height="1" fill="#9f7a3f" opacity=".58"/><rect x="-20" y="-15" width="1" height="1" fill="#4d3b50" opacity=".58"/>
  <g transform="rotate(0 32 32)">
    <path d="M32 10l17 7v15c0 11-7 17-17 22-10-5-17-11-17-22V17z" fill="#a994a8" stroke="#121012" stroke-width="3" stroke-linejoin="round" stroke-linecap="round"/><path d="M32 15v35" stroke="#eee1d2" stroke-width="4"/><path d="M20 25h24" stroke="#4d3b50" stroke-width="5"/>
  </g>
  <rect x="25" y="54" width="8" height="3" fill="#9f7a3f" opacity=".88"/>
</svg>
