<svg xmlns="http://www.w3.org/2000/svg" viewBox="0 0 64 64" role="img" aria-label="Briar Compass">
  <rect width="64" height="64" fill="none"/>
  <circle cx="32" cy="32" r="29" fill="#0c160e" opacity=".86"/>
  <path d="M13 32c0-11 8-20 19-20s19 9 19 20-8 20-19 20-19-9-19-20z" fill="#325b2d" opacity=".42"/>
  <rect x="-31" y="-14" width="0" height="0" fill="#6e4f2b" opacity=".58"/><rect x="-29" y="2" width="0" height="0" fill="#325b2d" opacity=".58"/><rect x="-17" y="-16" width="0" height="0" fill="#6e4f2b" opacity=".58"/><rect x="1" y="-10" width="0" height="0" fill="#325b2d" opacity=".58"/><rect x="-25" y="-31" width="1" height="1" fill="#6e4f2b" opacity=".58"/><rect x="-17" y="-36" width="0" height="0" fill="#325b2d" opacity=".58"/>
  <g transform="rotate(3 32 32)">
    <path d="M15 17l14-5 20 7v29l-16-6-18 7z" fill="#d1d98a" stroke="#0c160e" stroke-width="3" stroke-linejoin="round" stroke-linecap="round"/><path d="M29 12v31M34 17v25" stroke="#325b2d" stroke-width="3"/><path d="M19 36l8-6 8 3 10-8" fill="none" stroke="#6e4f2b" stroke-width="4"/>
  </g>
  <rect x="19" y="54" width="8" height="3" fill="#6e4f2b" opacity=".88"/>
</svg>
