<svg xmlns="http://www.w3.org/2000/svg" viewBox="0 0 64 64" role="img" aria-label="Choir Knife">
  <rect width="64" height="64" fill="none"/>
  <circle cx="32" cy="32" r="29" fill="#121012" opacity=".86"/>
  <path d="M13 32c0-11 8-20 19-20s19 9 19 20-8 20-19 20-19-9-19-20z" fill="#4d3b50" opacity=".42"/>
  <rect x="-3" y="3" width="0" height="0" fill="#9f7a3f" opacity=".58"/><rect x="-25" y="-16" width="0" height="0" fill="#4d3b50" opacity=".58"/><rect x="-28" y="-10" width="0" height="0" fill="#9f7a3f" opacity=".58"/><rect x="-23" y="-31" width="0" height="0" fill="#4d3b50" opacity=".58"/><rect x="5" y="-25" width="0" height="0" fill="#9f7a3f" opacity=".58"/><rect x="-30" y="-1" width="0" height="0" fill="#4d3b50" opacity=".58"/>
  <g transform="rotate(2 32 32)">
    <path d="M41 8l9 9-24 30-8-8z" fill="#eee1d2" stroke="#121012" stroke-width="3" stroke-linejoin="round" stroke-linecap="round"/><path d="M18 39l8 8-8 7-8-8z" fill="#9f7a3f" stroke="#121012" stroke-width="3" stroke-linejoin="round" stroke-linecap="round"/><path d="M37 15l7 7" stroke="#a994a8" stroke-width="4"/>
  </g>
  <rect x="39" y="54" width="8" height="3" fill="#9f7a3f" opacity=".88"/>
</svg>
