<svg xmlns="http://www.w3.org/2000/svg" viewBox="0 0 64 64" role="img" aria-label="Cinder Step">
  <rect width="64" height="64" fill="none"/>
  <circle cx="32" cy="32" r="29" fill="#1a0c08" opacity=".86"/>
  <path d="M13 32c0-11 8-20 19-20s19 9 19 20-8 20-19 20-19-9-19-20z" fill="#8b2f1f" opacity=".42"/>
  <rect x="-30" y="-21" width="0" height="0" fill="#d43d2f" opacity=".58"/><rect x="-28" y="-11" width="0" height="0" fill="#8b2f1f" opacity=".58"/><rect x="5" y="-20" width="0" height="0" fill="#d43d2f" opacity=".58"/><rect x="-19" y="-11" width="0" height="0" fill="#8b2f1f" opacity=".58"/><rect x="-11" y="-20" width="0" height="0" fill="#d43d2f" opacity=".58"/><rect x="-15" y="-33" width="1" height="1" fill="#8b2f1f" opacity=".58"/>
  <g transform="rotate(-2 32 32)">
    <path d="M22 15h12v22l13 5v8H22z" fill="#e0863e" stroke="#1a0c08" stroke-width="3" stroke-linejoin="round" stroke-linecap="round"/><path d="M24 39h25v7H24z" fill="#ffd27a" stroke="#1a0c08" stroke-width="3" stroke-linejoin="round" stroke-linecap="round"/><rect x="28" y="18" width="7" height="16" fill="#8b2f1f"/>
  </g>
  <rect x="36" y="54" width="8" height="3" fill="#d43d2f" opacity=".88"/>
</svg>
