<svg xmlns="http://www.w3.org/2000/svg" viewBox="0 0 64 64" role="img" aria-label="Dirge Step">
  <rect width="64" height="64" fill="none"/>
  <circle cx="32" cy="32" r="29" fill="#121012" opacity=".86"/>
  <path d="M13 32c0-11 8-20 19-20s19 9 19 20-8 20-19 20-19-9-19-20z" fill="#4d3b50" opacity=".42"/>
  <rect x="48" y="28" width="1" height="1" fill="#9f7a3f" opacity=".58"/><rect x="47" y="24" width="1" height="1" fill="#4d3b50" opacity=".58"/><rect x="14" y="34" width="2" height="2" fill="#9f7a3f" opacity=".58"/><rect x="10" y="37" width="1" height="1" fill="#4d3b50" opacity=".58"/><rect x="48" y="15" width="2" height="2" fill="#9f7a3f" opacity=".58"/><rect x="20" y="32" width="1" height="1" fill="#4d3b50" opacity=".58"/>
  <g transform="rotate(-3 32 32)">
    <path d="M22 15h12v22l13 5v8H22z" fill="#a994a8" stroke="#121012" stroke-width="3" stroke-linejoin="round" stroke-linecap="round"/><path d="M24 39h25v7H24z" fill="#eee1d2" stroke="#121012" stroke-width="3" stroke-linejoin="round" stroke-linecap="round"/><rect x="28" y="18" width="7" height="16" fill="#4d3b50"/>
  </g>
  <rect x="26" y="54" width="8" height="3" fill="#9f7a3f" opacity=".88"/>
</svg>
