<svg xmlns="http://www.w3.org/2000/svg" viewBox="0 0 64 64" role="img" aria-label="Furnace Heart">
  <rect width="64" height="64" fill="none"/>
  <circle cx="32" cy="32" r="29" fill="#1a0c08" opacity=".86"/>
  <path d="M13 32c0-11 8-20 19-20s19 9 19 20-8 20-19 20-19-9-19-20z" fill="#8b2f1f" opacity=".42"/>
  <rect x="39" y="50" width="2" height="2" fill="#d43d2f" opacity=".58"/><rect x="52" y="41" width="2" height="2" fill="#8b2f1f" opacity=".58"/><rect x="48" y="38" width="2" height="2" fill="#d43d2f" opacity=".58"/><rect x="25" y="26" width="1" height="1" fill="#8b2f1f" opacity=".58"/><rect x="44" y="46" width="2" height="2" fill="#d43d2f" opacity=".58"/><rect x="14" y="51" width="1" height="1" fill="#8b2f1f" opacity=".58"/>
  <g transform="rotate(0 32 32)">
    <path d="M32 10l17 7v15c0 11-7 17-17 22-10-5-17-11-17-22V17z" fill="#e0863e" stroke="#1a0c08" stroke-width="3" stroke-linejoin="round" stroke-linecap="round"/><path d="M32 15v35" stroke="#ffd27a" stroke-width="4"/><path d="M20 25h24" stroke="#8b2f1f" stroke-width="5"/>
  </g>
  <rect x="13" y="54" width="8" height="3" fill="#d43d2f" opacity=".88"/>
</svg>
