<svg xmlns="http://www.w3.org/2000/svg" viewBox="0 0 64 64" role="img" aria-label="Grave Robber">
  <rect width="64" height="64" fill="none"/>
  <circle cx="32" cy="32" r="29" fill="#121012" opacity=".86"/>
  <path d="M13 32c0-11 8-20 19-20s19 9 19 20-8 20-19 20-19-9-19-20z" fill="#4d3b50" opacity=".42"/>
  <rect x="32" y="32" width="1" height="1" fill="#9f7a3f" opacity=".58"/><rect x="40" y="47" width="1" height="1" fill="#4d3b50" opacity=".58"/><rect x="35" y="51" width="2" height="2" fill="#9f7a3f" opacity=".58"/><rect x="18" y="30" width="2" height="2" fill="#4d3b50" opacity=".58"/><rect x="49" y="24" width="2" height="2" fill="#9f7a3f" opacity=".58"/><rect x="25" y="45" width="2" height="2" fill="#4d3b50" opacity=".58"/>
  <g transform="rotate(2 32 32)">
    <circle cx="32" cy="32" r="18" fill="#9f7a3f" stroke="#121012" stroke-width="3" stroke-linejoin="round" stroke-linecap="round"/><circle cx="32" cy="32" r="10" fill="#eee1d2" stroke="#121012" stroke-width="3" stroke-linejoin="round" stroke-linecap="round"/><path d="M27 32h10M32 25v15" stroke="#121012" stroke-width="3"/>
  </g>
  <rect x="38" y="54" width="8" height="3" fill="#9f7a3f" opacity=".88"/>
</svg>
