<svg xmlns="http://www.w3.org/2000/svg" viewBox="0 0 64 64" role="img" aria-label="Knife Rhythm">
  <rect width="64" height="64" fill="none"/>
  <circle cx="32" cy="32" r="29" fill="#0b1020" opacity=".86"/>
  <path d="M13 32c0-11 8-20 19-20s19 9 19 20-8 20-19 20-19-9-19-20z" fill="#2d3358" opacity=".42"/>
  <rect x="4" y="0" width="1" height="1" fill="#caa35e" opacity=".58"/><rect x="-19" y="-28" width="1" height="1" fill="#2d3358" opacity=".58"/><rect x="0" y="-35" width="1" height="1" fill="#caa35e" opacity=".58"/><rect x="-30" y="-14" width="0" height="0" fill="#2d3358" opacity=".58"/><rect x="5" y="2" width="0" height="0" fill="#caa35e" opacity=".58"/><rect x="-30" y="-28" width="0" height="0" fill="#2d3358" opacity=".58"/>
  <g transform="rotate(-1 32 32)">
    <path d="M41 8l9 9-24 30-8-8z" fill="#e3d9ff" stroke="#0b1020" stroke-width="3" stroke-linejoin="round" stroke-linecap="round"/><path d="M18 39l8 8-8 7-8-8z" fill="#caa35e" stroke="#0b1020" stroke-width="3" stroke-linejoin="round" stroke-linecap="round"/><path d="M37 15l7 7" stroke="#8d81c9" stroke-width="4"/>
  </g>
  <rect x="42" y="54" width="8" height="3" fill="#caa35e" opacity=".88"/>
</svg>
