<svg xmlns="http://www.w3.org/2000/svg" viewBox="0 0 64 64" role="img" aria-label="Last Verse">
  <rect width="64" height="64" fill="none"/>
  <circle cx="32" cy="32" r="29" fill="#121012" opacity=".86"/>
  <path d="M13 32c0-11 8-20 19-20s19 9 19 20-8 20-19 20-19-9-19-20z" fill="#4d3b50" opacity=".42"/>
  <rect x="44" y="15" width="2" height="2" fill="#9f7a3f" opacity=".58"/><rect x="41" y="32" width="2" height="2" fill="#4d3b50" opacity=".58"/><rect x="46" y="36" width="1" height="1" fill="#9f7a3f" opacity=".58"/><rect x="25" y="48" width="2" height="2" fill="#4d3b50" opacity=".58"/><rect x="39" y="40" width="1" height="1" fill="#9f7a3f" opacity=".58"/><rect x="46" y="38" width="2" height="2" fill="#4d3b50" opacity=".58"/>
  <g transform="rotate(1 32 32)">
    <circle cx="21" cy="21" r="7" fill="#eee1d2" stroke="#121012" stroke-width="3" stroke-linejoin="round" stroke-linecap="round"/><circle cx="43" cy="43" r="7" fill="#eee1d2" stroke="#121012" stroke-width="3" stroke-linejoin="round" stroke-linecap="round"/><path d="M23 41l18-18" stroke="#eee1d2" stroke-width="10" stroke-linecap="round"/><path d="M24 40l16-16" stroke="#121012" stroke-width="3" stroke-linecap="round"/>
  </g>
  <rect x="26" y="54" width="8" height="3" fill="#9f7a3f" opacity=".88"/>
</svg>
