<svg xmlns="http://www.w3.org/2000/svg" viewBox="0 0 64 64" role="img" aria-label="Loopforged">
  <rect width="64" height="64" fill="none"/>
  <circle cx="32" cy="32" r="29" fill="#1a0c08" opacity=".86"/>
  <path d="M13 32c0-11 8-20 19-20s19 9 19 20-8 20-19 20-19-9-19-20z" fill="#8b2f1f" opacity=".42"/>
  <rect x="51" y="9" width="1" height="1" fill="#d43d2f" opacity=".58"/><rect x="26" y="42" width="2" height="2" fill="#8b2f1f" opacity=".58"/><rect x="12" y="27" width="2" height="2" fill="#d43d2f" opacity=".58"/><rect x="48" y="46" width="2" height="2" fill="#8b2f1f" opacity=".58"/><rect x="47" y="28" width="1" height="1" fill="#d43d2f" opacity=".58"/><rect x="42" y="13" width="1" height="1" fill="#8b2f1f" opacity=".58"/>
  <g transform="rotate(-2 32 32)">
    <circle cx="32" cy="32" r="18" fill="#8b2f1f" stroke="#1a0c08" stroke-width="3" stroke-linejoin="round" stroke-linecap="round"/><path d="M20 32c0-9 10-14 18-8 7 5 4 17-6 17" fill="none" stroke="#ffd27a" stroke-width="5"/>
  </g>
  <rect x="45" y="54" width="8" height="3" fill="#d43d2f" opacity=".88"/>
</svg>
