<svg xmlns="http://www.w3.org/2000/svg" viewBox="0 0 64 64" role="img" aria-label="Markbreaker">
  <rect width="64" height="64" fill="none"/>
  <circle cx="32" cy="32" r="29" fill="#091620" opacity=".86"/>
  <path d="M13 32c0-11 8-20 19-20s19 9 19 20-8 20-19 20-19-9-19-20z" fill="#1d4d73" opacity=".42"/>
  <rect x="53" y="9" width="2" height="2" fill="#c6b86a" opacity=".58"/><rect x="53" y="30" width="1" height="1" fill="#1d4d73" opacity=".58"/><rect x="31" y="36" width="2" height="2" fill="#c6b86a" opacity=".58"/><rect x="51" y="26" width="1" height="1" fill="#1d4d73" opacity=".58"/><rect x="42" y="46" width="1" height="1" fill="#c6b86a" opacity=".58"/><rect x="52" y="17" width="2" height="2" fill="#1d4d73" opacity=".58"/>
  <g transform="rotate(3 32 32)">
    <path d="M32 9l18 18-18 27-18-27z" fill="#1d4d73" stroke="#091620" stroke-width="3" stroke-linejoin="round" stroke-linecap="round"/><path d="M32 16v31M23 27h18M25 38l14-14" stroke="#d3f0ff" stroke-width="4" stroke-linecap="square"/>
  </g>
  <rect x="35" y="54" width="8" height="3" fill="#c6b86a" opacity=".88"/>
</svg>
