<svg xmlns="http://www.w3.org/2000/svg" viewBox="0 0 64 64" role="img" aria-label="Moon Pocket">
  <rect width="64" height="64" fill="none"/>
  <circle cx="32" cy="32" r="29" fill="#0b1020" opacity=".86"/>
  <path d="M13 32c0-11 8-20 19-20s19 9 19 20-8 20-19 20-19-9-19-20z" fill="#2d3358" opacity=".42"/>
  <rect x="48" y="37" width="1" height="1" fill="#caa35e" opacity=".58"/><rect x="42" y="37" width="1" height="1" fill="#2d3358" opacity=".58"/><rect x="41" y="37" width="1" height="1" fill="#caa35e" opacity=".58"/><rect x="46" y="49" width="2" height="2" fill="#2d3358" opacity=".58"/><rect x="31" y="29" width="1" height="1" fill="#caa35e" opacity=".58"/><rect x="29" y="47" width="1" height="1" fill="#2d3358" opacity=".58"/>
  <g transform="rotate(-3 32 32)">
    <circle cx="32" cy="32" r="18" fill="#caa35e" stroke="#0b1020" stroke-width="3" stroke-linejoin="round" stroke-linecap="round"/><circle cx="32" cy="32" r="10" fill="#e3d9ff" stroke="#0b1020" stroke-width="3" stroke-linejoin="round" stroke-linecap="round"/><path d="M27 32h10M32 25v15" stroke="#0b1020" stroke-width="3"/>
  </g>
  <rect x="22" y="54" width="8" height="3" fill="#caa35e" opacity=".88"/>
</svg>
