<svg xmlns="http://www.w3.org/2000/svg" viewBox="0 0 64 64" role="img" aria-label="Night Haul">
  <rect width="64" height="64" fill="none"/>
  <circle cx="32" cy="32" r="29" fill="#0b1020" opacity=".86"/>
  <path d="M13 32c0-11 8-20 19-20s19 9 19 20-8 20-19 20-19-9-19-20z" fill="#2d3358" opacity=".42"/>
  <rect x="-1" y="6" width="1" height="1" fill="#caa35e" opacity=".58"/><rect x="-14" y="-27" width="0" height="0" fill="#2d3358" opacity=".58"/><rect x="1" y="-24" width="0" height="0" fill="#caa35e" opacity=".58"/><rect x="8" y="-23" width="1" height="1" fill="#2d3358" opacity=".58"/><rect x="-2" y="0" width="1" height="1" fill="#caa35e" opacity=".58"/><rect x="-14" y="-17" width="0" height="0" fill="#2d3358" opacity=".58"/>
  <g transform="rotate(1 32 32)">
    <circle cx="32" cy="32" r="18" fill="#caa35e" stroke="#0b1020" stroke-width="3" stroke-linejoin="round" stroke-linecap="round"/><circle cx="32" cy="32" r="10" fill="#e3d9ff" stroke="#0b1020" stroke-width="3" stroke-linejoin="round" stroke-linecap="round"/><path d="M27 32h10M32 25v15" stroke="#0b1020" stroke-width="3"/>
  </g>
  <rect x="49" y="54" width="8" height="3" fill="#caa35e" opacity=".88"/>
</svg>
