<svg xmlns="http://www.w3.org/2000/svg" viewBox="0 0 64 64" role="img" aria-label="Old Bark">
  <rect width="64" height="64" fill="none"/>
  <circle cx="32" cy="32" r="29" fill="#0c160e" opacity=".86"/>
  <path d="M13 32c0-11 8-20 19-20s19 9 19 20-8 20-19 20-19-9-19-20z" fill="#325b2d" opacity=".42"/>
  <rect x="36" y="16" width="2" height="2" fill="#6e4f2b" opacity=".58"/><rect x="29" y="10" width="1" height="1" fill="#325b2d" opacity=".58"/><rect x="12" y="42" width="2" height="2" fill="#6e4f2b" opacity=".58"/><rect x="43" y="50" width="2" height="2" fill="#325b2d" opacity=".58"/><rect x="41" y="29" width="2" height="2" fill="#6e4f2b" opacity=".58"/><rect x="30" y="13" width="1" height="1" fill="#325b2d" opacity=".58"/>
  <g transform="rotate(1 32 32)">
    <path d="M32 10l17 7v15c0 11-7 17-17 22-10-5-17-11-17-22V17z" fill="#76a24d" stroke="#0c160e" stroke-width="3" stroke-linejoin="round" stroke-linecap="round"/><path d="M32 15v35" stroke="#d1d98a" stroke-width="4"/><path d="M20 25h24" stroke="#325b2d" stroke-width="5"/>
  </g>
  <rect x="18" y="54" width="8" height="3" fill="#6e4f2b" opacity=".88"/>
</svg>
