<svg xmlns="http://www.w3.org/2000/svg" viewBox="0 0 64 64" role="img" aria-label="Overheat">
  <rect width="64" height="64" fill="none"/>
  <circle cx="32" cy="32" r="29" fill="#1a0c08" opacity=".86"/>
  <path d="M13 32c0-11 8-20 19-20s19 9 19 20-8 20-19 20-19-9-19-20z" fill="#8b2f1f" opacity=".42"/>
  <rect x="46" y="39" width="1" height="1" fill="#d43d2f" opacity=".58"/><rect x="14" y="49" width="1" height="1" fill="#8b2f1f" opacity=".58"/><rect x="49" y="18" width="1" height="1" fill="#d43d2f" opacity=".58"/><rect x="42" y="33" width="1" height="1" fill="#8b2f1f" opacity=".58"/><rect x="14" y="48" width="1" height="1" fill="#d43d2f" opacity=".58"/><rect x="27" y="18" width="1" height="1" fill="#8b2f1f" opacity=".58"/>
  <g transform="rotate(-1 32 32)">
    <path d="M32 55c-12-6-15-17-9-27 3-5 8-9 7-18 12 9 20 19 13 32-2 4-5 8-11 13z" fill="#e0863e" stroke="#1a0c08" stroke-width="3" stroke-linejoin="round" stroke-linecap="round"/><path d="M33 48c-7-4-8-11-3-18 4 5 8 10 3 18z" fill="#ffd27a"/>
  </g>
  <rect x="48" y="54" width="8" height="3" fill="#d43d2f" opacity=".88"/>
</svg>
