<svg xmlns="http://www.w3.org/2000/svg" viewBox="0 0 64 64" role="img" aria-label="Red Riposte">
  <rect width="64" height="64" fill="none"/>
  <circle cx="32" cy="32" r="29" fill="#1a0c08" opacity=".86"/>
  <path d="M13 32c0-11 8-20 19-20s19 9 19 20-8 20-19 20-19-9-19-20z" fill="#8b2f1f" opacity=".42"/>
  <rect x="20" y="29" width="2" height="2" fill="#d43d2f" opacity=".58"/><rect x="44" y="13" width="1" height="1" fill="#8b2f1f" opacity=".58"/><rect x="52" y="9" width="1" height="1" fill="#d43d2f" opacity=".58"/><rect x="15" y="8" width="2" height="2" fill="#8b2f1f" opacity=".58"/><rect x="49" y="30" width="2" height="2" fill="#d43d2f" opacity=".58"/><rect x="20" y="47" width="1" height="1" fill="#8b2f1f" opacity=".58"/>
  <g transform="rotate(2 32 32)">
    <path d="M41 8l9 9-24 30-8-8z" fill="#ffd27a" stroke="#1a0c08" stroke-width="3" stroke-linejoin="round" stroke-linecap="round"/><path d="M18 39l8 8-8 7-8-8z" fill="#d43d2f" stroke="#1a0c08" stroke-width="3" stroke-linejoin="round" stroke-linecap="round"/><path d="M37 15l7 7" stroke="#e0863e" stroke-width="4"/>
  </g>
  <rect x="22" y="54" width="8" height="3" fill="#d43d2f" opacity=".88"/>
</svg>
