<svg xmlns="http://www.w3.org/2000/svg" viewBox="0 0 64 64" role="img" aria-label="Rune Ward">
  <rect width="64" height="64" fill="none"/>
  <circle cx="32" cy="32" r="29" fill="#091620" opacity=".86"/>
  <path d="M13 32c0-11 8-20 19-20s19 9 19 20-8 20-19 20-19-9-19-20z" fill="#1d4d73" opacity=".42"/>
  <rect x="-31" y="-4" width="1" height="1" fill="#c6b86a" opacity=".58"/><rect x="-29" y="-29" width="1" height="1" fill="#1d4d73" opacity=".58"/><rect x="10" y="-13" width="1" height="1" fill="#c6b86a" opacity=".58"/><rect x="-18" y="-31" width="0" height="0" fill="#1d4d73" opacity=".58"/><rect x="-21" y="-36" width="1" height="1" fill="#c6b86a" opacity=".58"/><rect x="-27" y="-3" width="1" height="1" fill="#1d4d73" opacity=".58"/>
  <g transform="rotate(-3 32 32)">
    <path d="M32 10l17 7v15c0 11-7 17-17 22-10-5-17-11-17-22V17z" fill="#62a7d5" stroke="#091620" stroke-width="3" stroke-linejoin="round" stroke-linecap="round"/><path d="M32 15v35" stroke="#d3f0ff" stroke-width="4"/><path d="M20 25h24" stroke="#1d4d73" stroke-width="5"/>
  </g>
  <rect x="19" y="54" width="8" height="3" fill="#c6b86a" opacity=".88"/>
</svg>
