<svg xmlns="http://www.w3.org/2000/svg" viewBox="0 0 64 64" role="img" aria-label="Seed Cache">
  <rect width="64" height="64" fill="none"/>
  <circle cx="32" cy="32" r="29" fill="#0c160e" opacity=".86"/>
  <path d="M13 32c0-11 8-20 19-20s19 9 19 20-8 20-19 20-19-9-19-20z" fill="#325b2d" opacity=".42"/>
  <rect x="24" y="34" width="1" height="1" fill="#6e4f2b" opacity=".58"/><rect x="22" y="48" width="1" height="1" fill="#325b2d" opacity=".58"/><rect x="22" y="40" width="2" height="2" fill="#6e4f2b" opacity=".58"/><rect x="22" y="16" width="2" height="2" fill="#325b2d" opacity=".58"/><rect x="33" y="43" width="2" height="2" fill="#6e4f2b" opacity=".58"/><rect x="18" y="39" width="1" height="1" fill="#325b2d" opacity=".58"/>
  <g transform="rotate(1 32 32)">
    <circle cx="32" cy="32" r="18" fill="#6e4f2b" stroke="#0c160e" stroke-width="3" stroke-linejoin="round" stroke-linecap="round"/><circle cx="32" cy="32" r="10" fill="#d1d98a" stroke="#0c160e" stroke-width="3" stroke-linejoin="round" stroke-linecap="round"/><path d="M27 32h10M32 25v15" stroke="#0c160e" stroke-width="3"/>
  </g>
  <rect x="50" y="54" width="8" height="3" fill="#6e4f2b" opacity=".88"/>
</svg>
