<svg xmlns="http://www.w3.org/2000/svg" viewBox="0 0 64 64" role="img" aria-label="Softstep">
  <rect width="64" height="64" fill="none"/>
  <circle cx="32" cy="32" r="29" fill="#0b1020" opacity=".86"/>
  <path d="M13 32c0-11 8-20 19-20s19 9 19 20-8 20-19 20-19-9-19-20z" fill="#2d3358" opacity=".42"/>
  <rect x="28" y="16" width="1" height="1" fill="#caa35e" opacity=".58"/><rect x="28" y="43" width="2" height="2" fill="#2d3358" opacity=".58"/><rect x="17" y="16" width="1" height="1" fill="#caa35e" opacity=".58"/><rect x="32" y="32" width="2" height="2" fill="#2d3358" opacity=".58"/><rect x="51" y="36" width="1" height="1" fill="#caa35e" opacity=".58"/><rect x="53" y="37" width="2" height="2" fill="#2d3358" opacity=".58"/>
  <g transform="rotate(-3 32 32)">
    <path d="M22 15h12v22l13 5v8H22z" fill="#8d81c9" stroke="#0b1020" stroke-width="3" stroke-linejoin="round" stroke-linecap="round"/><path d="M24 39h25v7H24z" fill="#e3d9ff" stroke="#0b1020" stroke-width="3" stroke-linejoin="round" stroke-linecap="round"/><rect x="28" y="18" width="7" height="16" fill="#2d3358"/>
  </g>
  <rect x="50" y="54" width="8" height="3" fill="#caa35e" opacity=".88"/>
</svg>
