<svg xmlns="http://www.w3.org/2000/svg" viewBox="0 0 64 64" role="img" aria-label="Thorn Lash">
  <rect width="64" height="64" fill="none"/>
  <circle cx="32" cy="32" r="29" fill="#0c160e" opacity=".86"/>
  <path d="M13 32c0-11 8-20 19-20s19 9 19 20-8 20-19 20-19-9-19-20z" fill="#325b2d" opacity=".42"/>
  <rect x="42" y="41" width="2" height="2" fill="#6e4f2b" opacity=".58"/><rect x="14" y="16" width="1" height="1" fill="#325b2d" opacity=".58"/><rect x="32" y="21" width="2" height="2" fill="#6e4f2b" opacity=".58"/><rect x="51" y="11" width="2" height="2" fill="#325b2d" opacity=".58"/><rect x="53" y="8" width="2" height="2" fill="#6e4f2b" opacity=".58"/><rect x="31" y="41" width="2" height="2" fill="#325b2d" opacity=".58"/>
  <g transform="rotate(1 32 32)">
    <path d="M18 39c1-20 17-27 34-24-3 19-14 33-34 24z" fill="#76a24d" stroke="#0c160e" stroke-width="3" stroke-linejoin="round" stroke-linecap="round"/><path d="M20 39c9-8 19-14 31-23" stroke="#d1d98a" stroke-width="4"/><path d="M27 34l-4-11M36 28l-2-10" stroke="#325b2d" stroke-width="3"/>
  </g>
  <rect x="28" y="54" width="8" height="3" fill="#6e4f2b" opacity=".88"/>
</svg>
