<svg xmlns="http://www.w3.org/2000/svg" viewBox="0 0 64 64" role="img" aria-label="Vanish Loop">
  <rect width="64" height="64" fill="none"/>
  <circle cx="32" cy="32" r="29" fill="#0b1020" opacity=".86"/>
  <path d="M13 32c0-11 8-20 19-20s19 9 19 20-8 20-19 20-19-9-19-20z" fill="#2d3358" opacity=".42"/>
  <rect x="4" y="8" width="0" height="0" fill="#caa35e" opacity=".58"/><rect x="-8" y="-26" width="1" height="1" fill="#2d3358" opacity=".58"/><rect x="-4" y="-12" width="1" height="1" fill="#caa35e" opacity=".58"/><rect x="-25" y="-31" width="1" height="1" fill="#2d3358" opacity=".58"/><rect x="0" y="-13" width="0" height="0" fill="#caa35e" opacity=".58"/><rect x="-25" y="2" width="0" height="0" fill="#2d3358" opacity=".58"/>
  <g transform="rotate(0 32 32)">
    <circle cx="32" cy="32" r="18" fill="#2d3358" stroke="#0b1020" stroke-width="3" stroke-linejoin="round" stroke-linecap="round"/><path d="M20 32c0-9 10-14 18-8 7 5 4 17-6 17" fill="none" stroke="#e3d9ff" stroke-width="5"/>
  </g>
  <rect x="50" y="54" width="8" height="3" fill="#caa35e" opacity=".88"/>
</svg>
