<svg xmlns="http://www.w3.org/2000/svg" viewBox="0 0 64 64" role="img" aria-label="Watcher Code">
  <rect width="64" height="64" fill="none"/>
  <circle cx="32" cy="32" r="29" fill="#091620" opacity=".86"/>
  <path d="M13 32c0-11 8-20 19-20s19 9 19 20-8 20-19 20-19-9-19-20z" fill="#1d4d73" opacity=".42"/>
  <rect x="0" y="-26" width="0" height="0" fill="#c6b86a" opacity=".58"/><rect x="-3" y="-1" width="1" height="1" fill="#1d4d73" opacity=".58"/><rect x="-25" y="-6" width="0" height="0" fill="#c6b86a" opacity=".58"/><rect x="-17" y="-7" width="1" height="1" fill="#1d4d73" opacity=".58"/><rect x="-16" y="4" width="0" height="0" fill="#c6b86a" opacity=".58"/><rect x="-21" y="-27" width="1" height="1" fill="#1d4d73" opacity=".58"/>
  <g transform="rotate(1 32 32)">
    <path d="M15 17l14-5 20 7v29l-16-6-18 7z" fill="#d3f0ff" stroke="#091620" stroke-width="3" stroke-linejoin="round" stroke-linecap="round"/><path d="M29 12v31M34 17v25" stroke="#1d4d73" stroke-width="3"/><path d="M19 36l8-6 8 3 10-8" fill="none" stroke="#c6b86a" stroke-width="4"/>
  </g>
  <rect x="50" y="54" width="8" height="3" fill="#c6b86a" opacity=".88"/>
</svg>
